<mxfile host="Electron" agent="Mozilla/5.0 (Windows NT 10.0; Win64; x64) AppleWebKit/537.36 (KHTML, like Gecko) draw.io/24.7.17 Chrome/128.0.6613.36 Electron/32.0.1 Safari/537.36" version="24.7.17">
  <diagram name="Page-1" id="TAl6P1IXfSUVAxGhCBiL">
    <mxGraphModel dx="1431" dy="1547" grid="0" gridSize="10" guides="1" tooltips="1" connect="1" arrows="1" fold="1" page="1" pageScale="1" pageWidth="850" pageHeight="1100" math="0" shadow="0">
      <root>
        <mxCell id="0" />
        <mxCell id="1" parent="0" />
        <mxCell id="xtke9pWhgcPWdKN6hmHq-15" value="" style="edgeStyle=none;curved=1;rounded=0;orthogonalLoop=1;jettySize=auto;html=1;fontSize=12;startSize=8;endSize=8;dashed=1;" parent="1" source="xtke9pWhgcPWdKN6hmHq-1" target="xtke9pWhgcPWdKN6hmHq-3" edge="1">
          <mxGeometry relative="1" as="geometry" />
        </mxCell>
        <mxCell id="xtke9pWhgcPWdKN6hmHq-1" value="" style="dashed=0;outlineConnect=0;html=1;align=center;labelPosition=center;verticalLabelPosition=bottom;verticalAlign=top;shape=mxgraph.webicons.json;gradientColor=#DFDEDE" parent="1" vertex="1">
          <mxGeometry x="-24" y="42" width="70" height="79" as="geometry" />
        </mxCell>
        <mxCell id="xtke9pWhgcPWdKN6hmHq-3" value="Data Lake (S3)" style="sketch=0;points=[[0,0,0],[0.25,0,0],[0.5,0,0],[0.75,0,0],[1,0,0],[0,1,0],[0.25,1,0],[0.5,1,0],[0.75,1,0],[1,1,0],[0,0.25,0],[0,0.5,0],[0,0.75,0],[1,0.25,0],[1,0.5,0],[1,0.75,0]];outlineConnect=0;fontColor=#232F3E;fillColor=#7AA116;strokeColor=#ffffff;dashed=0;verticalLabelPosition=bottom;verticalAlign=top;align=center;html=1;fontSize=12;fontStyle=0;aspect=fixed;shape=mxgraph.aws4.resourceIcon;resIcon=mxgraph.aws4.s3;" parent="1" vertex="1">
          <mxGeometry x="-28" y="160" width="87" height="87" as="geometry" />
        </mxCell>
        <mxCell id="xtke9pWhgcPWdKN6hmHq-4" value="Data Warehouse(Snowflake)&amp;nbsp;&lt;div&gt;&lt;br&gt;&lt;/div&gt;" style="shape=mxgraph.signs.nature.snowflake;html=1;pointerEvents=1;fillColor=#000000;strokeColor=none;verticalLabelPosition=bottom;verticalAlign=top;align=center;" parent="1" vertex="1">
          <mxGeometry x="179.5" y="154.5" width="87" height="98" as="geometry" />
        </mxCell>
        <mxCell id="xtke9pWhgcPWdKN6hmHq-5" style="edgeStyle=none;curved=1;rounded=0;orthogonalLoop=1;jettySize=auto;html=1;entryX=0.051;entryY=0.506;entryDx=0;entryDy=0;entryPerimeter=0;fontSize=12;startSize=8;endSize=8;" parent="1" source="xtke9pWhgcPWdKN6hmHq-3" target="xtke9pWhgcPWdKN6hmHq-4" edge="1">
          <mxGeometry relative="1" as="geometry" />
        </mxCell>
        <mxCell id="xtke9pWhgcPWdKN6hmHq-8" style="edgeStyle=none;curved=1;rounded=0;orthogonalLoop=1;jettySize=auto;html=1;entryX=0.026;entryY=0.508;entryDx=0;entryDy=0;entryPerimeter=0;fontSize=12;startSize=8;endSize=8;" parent="1" source="xtke9pWhgcPWdKN6hmHq-4" edge="1">
          <mxGeometry relative="1" as="geometry">
            <mxPoint x="410.85249999999996" y="203.25999999999976" as="targetPoint" />
          </mxGeometry>
        </mxCell>
        <mxCell id="xtke9pWhgcPWdKN6hmHq-11" value="" style="edgeStyle=none;curved=1;rounded=0;orthogonalLoop=1;jettySize=auto;html=1;fontSize=12;startSize=8;endSize=8;dashed=1;dashPattern=8 8;" parent="1" source="xtke9pWhgcPWdKN6hmHq-9" target="xtke9pWhgcPWdKN6hmHq-4" edge="1">
          <mxGeometry relative="1" as="geometry" />
        </mxCell>
        <mxCell id="xtke9pWhgcPWdKN6hmHq-9" value="&lt;h3 style=&quot;margin-top: 0px;&quot;&gt;&lt;font face=&quot;Times New Roman&quot;&gt;&lt;span style=&quot;font-size: 12px;&quot;&gt;1- Flatten Complex JSON&amp;nbsp; Data&amp;nbsp;&lt;br&gt;&lt;/span&gt;&lt;span style=&quot;font-size: 12px;&quot;&gt;2- Data Cleaning /Transformations&lt;br&gt;&lt;/span&gt;&lt;span style=&quot;font-size: 12px;&quot;&gt;3- Dimension and fact tables&lt;/span&gt;&lt;/font&gt;&lt;/h3&gt;" style="text;html=1;whiteSpace=wrap;overflow=hidden;rounded=0;dashed=1;" parent="1" vertex="1">
          <mxGeometry x="131" y="28" width="183" height="66" as="geometry" />
        </mxCell>
        <mxCell id="xtke9pWhgcPWdKN6hmHq-14" value="" style="edgeStyle=none;curved=1;rounded=0;orthogonalLoop=1;jettySize=auto;html=1;fontSize=12;startSize=8;endSize=8;dashed=1;" parent="1" source="xtke9pWhgcPWdKN6hmHq-12" edge="1">
          <mxGeometry relative="1" as="geometry">
            <mxPoint x="444.62332155477" y="154.99999999999977" as="targetPoint" />
          </mxGeometry>
        </mxCell>
        <mxCell id="xtke9pWhgcPWdKN6hmHq-12" value="&lt;b&gt;Write SQL queries to extract insights&lt;/b&gt;" style="text;html=1;whiteSpace=wrap;overflow=hidden;rounded=0;dashed=1;" parent="1" vertex="1">
          <mxGeometry x="335.96" y="61" width="217.32" height="33" as="geometry" />
        </mxCell>
        <mxCell id="xtke9pWhgcPWdKN6hmHq-16" value="&lt;font style=&quot;font-size: 28px;&quot;&gt;Cricket Data Analytics&lt;/font&gt;" style="text;html=1;align=center;verticalAlign=middle;resizable=0;points=[];autosize=1;strokeColor=#9673a6;fillColor=#e1d5e7;fontSize=16;" parent="1" vertex="1">
          <mxGeometry x="66.5" y="-112" width="290" height="46" as="geometry" />
        </mxCell>
        <mxCell id="xtke9pWhgcPWdKN6hmHq-17" value="Complex JSON Structure" style="text;html=1;align=center;verticalAlign=middle;resizable=0;points=[];autosize=1;strokeColor=none;fillColor=none;fontSize=16;" parent="1" vertex="1">
          <mxGeometry x="-81" y="15" width="198" height="31" as="geometry" />
        </mxCell>
        <mxCell id="fou3B7Lh8F56_5UzWO_y-1" value="" style="verticalLabelPosition=bottom;html=1;verticalAlign=top;align=center;strokeColor=none;fillColor=#00BEF2;shape=mxgraph.azure.sql_database;" vertex="1" parent="1">
          <mxGeometry x="411.62" y="155.5" width="66" height="91.5" as="geometry" />
        </mxCell>
        <mxCell id="fou3B7Lh8F56_5UzWO_y-12" value="&lt;span style=&quot;font-size: 28px;&quot;&gt;End to End Data Pipeline&lt;/span&gt;" style="text;html=1;align=center;verticalAlign=middle;resizable=0;points=[];autosize=1;strokeColor=#9673a6;fillColor=#e1d5e7;fontSize=16;" vertex="1" parent="1">
          <mxGeometry x="46.00000000000001" y="-57" width="331" height="46" as="geometry" />
        </mxCell>
        <mxCell id="fou3B7Lh8F56_5UzWO_y-14" value="Automate the full pipeline using Snowpipe,Tasks and streams" style="rounded=0;whiteSpace=wrap;html=1;" vertex="1" parent="1">
          <mxGeometry x="-22" y="298" width="490" height="60" as="geometry" />
        </mxCell>
        <mxCell id="fou3B7Lh8F56_5UzWO_y-28" value="match_innings" style="shape=table;startSize=30;container=1;collapsible=1;childLayout=tableLayout;fixedRows=0;rowLines=1;fontStyle=1;align=center;resizeLast=1;html=1;resizeLastRow=1;resizeHeight=0;" vertex="1" parent="1">
          <mxGeometry x="340.98" y="602" width="121" height="126" as="geometry">
            <mxRectangle x="340.97999999999996" y="602" width="120.04" height="30" as="alternateBounds" />
          </mxGeometry>
        </mxCell>
        <mxCell id="fou3B7Lh8F56_5UzWO_y-32" value="" style="shape=tableRow;horizontal=0;startSize=0;swimlaneHead=0;swimlaneBody=0;fillColor=none;collapsible=0;dropTarget=0;points=[[0,0.5],[1,0.5]];portConstraint=eastwest;top=0;left=0;right=0;bottom=0;" vertex="1" parent="fou3B7Lh8F56_5UzWO_y-28">
          <mxGeometry y="30" width="121" height="96" as="geometry" />
        </mxCell>
        <mxCell id="fou3B7Lh8F56_5UzWO_y-33" value="PK" style="shape=partialRectangle;connectable=0;fillColor=none;top=0;left=0;bottom=0;right=0;editable=1;overflow=hidden;whiteSpace=wrap;html=1;" vertex="1" parent="fou3B7Lh8F56_5UzWO_y-32">
          <mxGeometry width="30" height="96" as="geometry">
            <mxRectangle width="30" height="96" as="alternateBounds" />
          </mxGeometry>
        </mxCell>
        <mxCell id="fou3B7Lh8F56_5UzWO_y-34" value="&lt;div&gt;&lt;br&gt;&lt;/div&gt;match_id&lt;div&gt;inning_id&lt;/div&gt;&lt;div&gt;over&lt;/div&gt;&lt;div&gt;ball_in_over&lt;/div&gt;&lt;div&gt;&lt;br&gt;&lt;/div&gt;" style="shape=partialRectangle;connectable=0;fillColor=none;top=0;left=0;bottom=0;right=0;align=left;spacingLeft=6;overflow=hidden;whiteSpace=wrap;html=1;" vertex="1" parent="fou3B7Lh8F56_5UzWO_y-32">
          <mxGeometry x="30" width="91" height="96" as="geometry">
            <mxRectangle width="91" height="96" as="alternateBounds" />
          </mxGeometry>
        </mxCell>
        <mxCell id="fou3B7Lh8F56_5UzWO_y-67" style="edgeStyle=orthogonalEdgeStyle;rounded=0;orthogonalLoop=1;jettySize=auto;html=1;entryX=0;entryY=0.5;entryDx=0;entryDy=0;" edge="1" parent="1" source="fou3B7Lh8F56_5UzWO_y-41" target="fou3B7Lh8F56_5UzWO_y-28">
          <mxGeometry relative="1" as="geometry" />
        </mxCell>
        <mxCell id="fou3B7Lh8F56_5UzWO_y-41" value="match_info" style="shape=table;startSize=30;container=1;collapsible=1;childLayout=tableLayout;fixedRows=1;rowLines=0;fontStyle=1;align=center;resizeLast=1;html=1;" vertex="1" parent="1">
          <mxGeometry x="135" y="604" width="121" height="122" as="geometry">
            <mxRectangle x="135" y="604" width="94" height="30" as="alternateBounds" />
          </mxGeometry>
        </mxCell>
        <mxCell id="fou3B7Lh8F56_5UzWO_y-45" value="" style="shape=tableRow;horizontal=0;startSize=0;swimlaneHead=0;swimlaneBody=0;fillColor=none;collapsible=0;dropTarget=0;points=[[0,0.5],[1,0.5]];portConstraint=eastwest;top=0;left=0;right=0;bottom=0;" vertex="1" parent="fou3B7Lh8F56_5UzWO_y-41">
          <mxGeometry y="30" width="121" height="30" as="geometry" />
        </mxCell>
        <mxCell id="fou3B7Lh8F56_5UzWO_y-46" value="PK" style="shape=partialRectangle;connectable=0;fillColor=none;top=0;left=0;bottom=0;right=0;editable=1;overflow=hidden;whiteSpace=wrap;html=1;" vertex="1" parent="fou3B7Lh8F56_5UzWO_y-45">
          <mxGeometry width="30" height="30" as="geometry">
            <mxRectangle width="30" height="30" as="alternateBounds" />
          </mxGeometry>
        </mxCell>
        <mxCell id="fou3B7Lh8F56_5UzWO_y-47" value="match_id" style="shape=partialRectangle;connectable=0;fillColor=none;top=0;left=0;bottom=0;right=0;align=left;spacingLeft=6;overflow=hidden;whiteSpace=wrap;html=1;" vertex="1" parent="fou3B7Lh8F56_5UzWO_y-45">
          <mxGeometry x="30" width="91" height="30" as="geometry">
            <mxRectangle width="91" height="30" as="alternateBounds" />
          </mxGeometry>
        </mxCell>
        <mxCell id="fou3B7Lh8F56_5UzWO_y-48" value="" style="shape=tableRow;horizontal=0;startSize=0;swimlaneHead=0;swimlaneBody=0;fillColor=none;collapsible=0;dropTarget=0;points=[[0,0.5],[1,0.5]];portConstraint=eastwest;top=0;left=0;right=0;bottom=0;" vertex="1" parent="fou3B7Lh8F56_5UzWO_y-41">
          <mxGeometry y="60" width="121" height="32" as="geometry" />
        </mxCell>
        <mxCell id="fou3B7Lh8F56_5UzWO_y-49" value="" style="shape=partialRectangle;connectable=0;fillColor=none;top=0;left=0;bottom=0;right=0;editable=1;overflow=hidden;whiteSpace=wrap;html=1;" vertex="1" parent="fou3B7Lh8F56_5UzWO_y-48">
          <mxGeometry width="30" height="32" as="geometry">
            <mxRectangle width="30" height="32" as="alternateBounds" />
          </mxGeometry>
        </mxCell>
        <mxCell id="fou3B7Lh8F56_5UzWO_y-50" value="" style="shape=partialRectangle;connectable=0;fillColor=none;top=0;left=0;bottom=0;right=0;align=left;spacingLeft=6;overflow=hidden;whiteSpace=wrap;html=1;" vertex="1" parent="fou3B7Lh8F56_5UzWO_y-48">
          <mxGeometry x="30" width="91" height="32" as="geometry">
            <mxRectangle width="91" height="32" as="alternateBounds" />
          </mxGeometry>
        </mxCell>
        <mxCell id="fou3B7Lh8F56_5UzWO_y-51" value="" style="shape=tableRow;horizontal=0;startSize=0;swimlaneHead=0;swimlaneBody=0;fillColor=none;collapsible=0;dropTarget=0;points=[[0,0.5],[1,0.5]];portConstraint=eastwest;top=0;left=0;right=0;bottom=0;" vertex="1" parent="fou3B7Lh8F56_5UzWO_y-41">
          <mxGeometry y="92" width="121" height="30" as="geometry" />
        </mxCell>
        <mxCell id="fou3B7Lh8F56_5UzWO_y-52" value="" style="shape=partialRectangle;connectable=0;fillColor=none;top=0;left=0;bottom=0;right=0;editable=1;overflow=hidden;whiteSpace=wrap;html=1;" vertex="1" parent="fou3B7Lh8F56_5UzWO_y-51">
          <mxGeometry width="30" height="30" as="geometry">
            <mxRectangle width="30" height="30" as="alternateBounds" />
          </mxGeometry>
        </mxCell>
        <mxCell id="fou3B7Lh8F56_5UzWO_y-53" value="" style="shape=partialRectangle;connectable=0;fillColor=none;top=0;left=0;bottom=0;right=0;align=left;spacingLeft=6;overflow=hidden;whiteSpace=wrap;html=1;" vertex="1" parent="fou3B7Lh8F56_5UzWO_y-51">
          <mxGeometry x="30" width="91" height="30" as="geometry">
            <mxRectangle width="91" height="30" as="alternateBounds" />
          </mxGeometry>
        </mxCell>
        <mxCell id="fou3B7Lh8F56_5UzWO_y-68" value="match_id" style="text;html=1;align=center;verticalAlign=middle;resizable=0;points=[];autosize=1;strokeColor=none;fillColor=none;" vertex="1" parent="1">
          <mxGeometry x="262" y="634" width="67" height="26" as="geometry" />
        </mxCell>
        <mxCell id="fou3B7Lh8F56_5UzWO_y-75" value="" style="shape=tableRow;horizontal=0;startSize=0;swimlaneHead=0;swimlaneBody=0;fillColor=none;collapsible=0;dropTarget=0;points=[[0,0.5],[1,0.5]];portConstraint=eastwest;top=0;left=0;right=0;bottom=0;" vertex="1" parent="1">
          <mxGeometry x="340.99999999999994" y="722" width="121" height="30" as="geometry" />
        </mxCell>
        <mxCell id="fou3B7Lh8F56_5UzWO_y-76" value="" style="shape=partialRectangle;connectable=0;fillColor=none;top=0;left=0;bottom=0;right=0;editable=1;overflow=hidden;whiteSpace=wrap;html=1;" vertex="1" parent="fou3B7Lh8F56_5UzWO_y-75">
          <mxGeometry width="30" height="30" as="geometry">
            <mxRectangle width="30" height="30" as="alternateBounds" />
          </mxGeometry>
        </mxCell>
        <mxCell id="fou3B7Lh8F56_5UzWO_y-78" value="" style="shape=tableRow;horizontal=0;startSize=0;swimlaneHead=0;swimlaneBody=0;fillColor=none;collapsible=0;dropTarget=0;points=[[0,0.5],[1,0.5]];portConstraint=eastwest;top=0;left=0;right=0;bottom=0;" vertex="1" parent="1">
          <mxGeometry x="341.99999999999994" y="723" width="121" height="30" as="geometry" />
        </mxCell>
        <mxCell id="fou3B7Lh8F56_5UzWO_y-79" value="" style="shape=partialRectangle;connectable=0;fillColor=none;top=0;left=0;bottom=0;right=0;editable=1;overflow=hidden;whiteSpace=wrap;html=1;" vertex="1" parent="fou3B7Lh8F56_5UzWO_y-78">
          <mxGeometry width="30" height="30" as="geometry">
            <mxRectangle width="30" height="30" as="alternateBounds" />
          </mxGeometry>
        </mxCell>
        <mxCell id="fou3B7Lh8F56_5UzWO_y-115" style="edgeStyle=orthogonalEdgeStyle;rounded=0;orthogonalLoop=1;jettySize=auto;html=1;entryX=0.5;entryY=0;entryDx=0;entryDy=0;" edge="1" parent="1" source="fou3B7Lh8F56_5UzWO_y-87" target="fou3B7Lh8F56_5UzWO_y-28">
          <mxGeometry relative="1" as="geometry" />
        </mxCell>
        <mxCell id="fou3B7Lh8F56_5UzWO_y-116" value="batter_id, bowler_id, non_striker_id,fielder_id" style="edgeLabel;html=1;align=center;verticalAlign=middle;resizable=0;points=[];" vertex="1" connectable="0" parent="fou3B7Lh8F56_5UzWO_y-115">
          <mxGeometry x="-0.0723" y="5" relative="1" as="geometry">
            <mxPoint as="offset" />
          </mxGeometry>
        </mxCell>
        <mxCell id="fou3B7Lh8F56_5UzWO_y-87" value="players" style="shape=table;startSize=34;container=1;collapsible=1;childLayout=tableLayout;fixedRows=1;rowLines=0;fontStyle=1;align=center;resizeLast=1;html=1;" vertex="1" parent="1">
          <mxGeometry x="336.97999999999996" y="462" width="131.04" height="64" as="geometry">
            <mxRectangle x="135" y="604" width="94" height="30" as="alternateBounds" />
          </mxGeometry>
        </mxCell>
        <mxCell id="fou3B7Lh8F56_5UzWO_y-88" value="" style="shape=tableRow;horizontal=0;startSize=0;swimlaneHead=0;swimlaneBody=0;fillColor=none;collapsible=0;dropTarget=0;points=[[0,0.5],[1,0.5]];portConstraint=eastwest;top=0;left=0;right=0;bottom=0;" vertex="1" parent="fou3B7Lh8F56_5UzWO_y-87">
          <mxGeometry y="34" width="131.04" height="30" as="geometry" />
        </mxCell>
        <mxCell id="fou3B7Lh8F56_5UzWO_y-89" value="PK" style="shape=partialRectangle;connectable=0;fillColor=none;top=0;left=0;bottom=0;right=0;editable=1;overflow=hidden;whiteSpace=wrap;html=1;" vertex="1" parent="fou3B7Lh8F56_5UzWO_y-88">
          <mxGeometry width="30" height="30" as="geometry">
            <mxRectangle width="30" height="30" as="alternateBounds" />
          </mxGeometry>
        </mxCell>
        <mxCell id="fou3B7Lh8F56_5UzWO_y-90" value="player_id" style="shape=partialRectangle;connectable=0;fillColor=none;top=0;left=0;bottom=0;right=0;align=left;spacingLeft=6;overflow=hidden;whiteSpace=wrap;html=1;" vertex="1" parent="fou3B7Lh8F56_5UzWO_y-88">
          <mxGeometry x="30" width="101.03999999999999" height="30" as="geometry">
            <mxRectangle width="101.03999999999999" height="30" as="alternateBounds" />
          </mxGeometry>
        </mxCell>
        <mxCell id="fou3B7Lh8F56_5UzWO_y-114" style="edgeStyle=orthogonalEdgeStyle;rounded=0;orthogonalLoop=1;jettySize=auto;html=1;entryX=0.5;entryY=0;entryDx=0;entryDy=0;" edge="1" parent="1" source="fou3B7Lh8F56_5UzWO_y-97" target="fou3B7Lh8F56_5UzWO_y-41">
          <mxGeometry relative="1" as="geometry" />
        </mxCell>
        <mxCell id="fou3B7Lh8F56_5UzWO_y-97" value="teams" style="shape=table;startSize=30;container=1;collapsible=1;childLayout=tableLayout;fixedRows=1;rowLines=0;fontStyle=1;align=center;resizeLast=1;html=1;" vertex="1" parent="1">
          <mxGeometry x="135.00000000000003" y="462" width="121" height="60" as="geometry">
            <mxRectangle x="135" y="604" width="94" height="30" as="alternateBounds" />
          </mxGeometry>
        </mxCell>
        <mxCell id="fou3B7Lh8F56_5UzWO_y-98" value="" style="shape=tableRow;horizontal=0;startSize=0;swimlaneHead=0;swimlaneBody=0;fillColor=none;collapsible=0;dropTarget=0;points=[[0,0.5],[1,0.5]];portConstraint=eastwest;top=0;left=0;right=0;bottom=0;" vertex="1" parent="fou3B7Lh8F56_5UzWO_y-97">
          <mxGeometry y="30" width="121" height="30" as="geometry" />
        </mxCell>
        <mxCell id="fou3B7Lh8F56_5UzWO_y-99" value="PK" style="shape=partialRectangle;connectable=0;fillColor=none;top=0;left=0;bottom=0;right=0;editable=1;overflow=hidden;whiteSpace=wrap;html=1;" vertex="1" parent="fou3B7Lh8F56_5UzWO_y-98">
          <mxGeometry width="30" height="30" as="geometry">
            <mxRectangle width="30" height="30" as="alternateBounds" />
          </mxGeometry>
        </mxCell>
        <mxCell id="fou3B7Lh8F56_5UzWO_y-100" value="team_id" style="shape=partialRectangle;connectable=0;fillColor=none;top=0;left=0;bottom=0;right=0;align=left;spacingLeft=6;overflow=hidden;whiteSpace=wrap;html=1;" vertex="1" parent="fou3B7Lh8F56_5UzWO_y-98">
          <mxGeometry x="30" width="91" height="30" as="geometry">
            <mxRectangle width="91" height="30" as="alternateBounds" />
          </mxGeometry>
        </mxCell>
        <mxCell id="fou3B7Lh8F56_5UzWO_y-109" style="edgeStyle=orthogonalEdgeStyle;rounded=0;orthogonalLoop=1;jettySize=auto;html=1;entryX=-0.041;entryY=0.353;entryDx=0;entryDy=0;entryPerimeter=0;" edge="1" parent="1" source="fou3B7Lh8F56_5UzWO_y-98" target="fou3B7Lh8F56_5UzWO_y-88">
          <mxGeometry relative="1" as="geometry" />
        </mxCell>
        <mxCell id="fou3B7Lh8F56_5UzWO_y-110" value="team_id" style="edgeLabel;html=1;align=center;verticalAlign=middle;resizable=0;points=[];" vertex="1" connectable="0" parent="fou3B7Lh8F56_5UzWO_y-109">
          <mxGeometry x="-0.3609" y="7" relative="1" as="geometry">
            <mxPoint as="offset" />
          </mxGeometry>
        </mxCell>
        <mxCell id="fou3B7Lh8F56_5UzWO_y-113" value="team1_id , team2_id" style="text;html=1;align=center;verticalAlign=middle;resizable=0;points=[];autosize=1;strokeColor=none;fillColor=none;" vertex="1" parent="1">
          <mxGeometry x="132" y="548" width="127" height="26" as="geometry" />
        </mxCell>
      </root>
    </mxGraphModel>
  </diagram>
</mxfile>
